<svg xmlns="http://www.w3.org/2000/svg" width="25" height="25" viewBox="0 0 25 25"><defs><style>.a{fill:#94bf13;}</style></defs><path class="a" d="M1427.359-625a7.356,7.356,0,0,1-5.242-1.966,7.253,7.253,0,0,1-2.117-5.393v-10.333a6.9,6.9,0,0,1,7.308-7.308h10.384a7.177,7.177,0,0,1,5.292,2.066,7.225,7.225,0,0,1,2.016,5.242v10.383a7.215,7.215,0,0,1-2.067,5.343,7.443,7.443,0,0,1-5.292,1.966Zm-3.679-21.371a5.022,5.022,0,0,0-1.361,3.679v10.333a5.064,5.064,0,0,0,1.361,3.73,5.209,5.209,0,0,0,3.679,1.31h10.283a5.211,5.211,0,0,0,3.68-1.31,4.926,4.926,0,0,0,1.461-3.679v-10.383a5.2,5.2,0,0,0-1.361-3.629,5.024,5.024,0,0,0-3.679-1.361h-10.383A5.125,5.125,0,0,0,1423.68-646.371Zm2.369,8.821A6.464,6.464,0,0,1,1432.5-644a6.5,6.5,0,0,1,6.452,6.452,6.464,6.464,0,0,1-6.452,6.452A6.431,6.431,0,0,1,1426.049-637.55Zm2.318,0a4.152,4.152,0,0,0,4.133,4.133,4.152,4.152,0,0,0,4.133-4.133,4.152,4.152,0,0,0-4.133-4.133A4.152,4.152,0,0,0,1428.367-637.55Zm9.375-6.6a1.462,1.462,0,0,1,1.462-1.462,1.462,1.462,0,0,1,1.461,1.462,1.462,1.462,0,0,1-1.461,1.462A1.462,1.462,0,0,1,1437.742-644.153Z" transform="translate(-1420 649.999)"/></svg>