<svg xmlns="http://www.w3.org/2000/svg" xmlns:xlink="http://www.w3.org/1999/xlink" width="270" height="55" viewBox="0 0 270 55"><defs><style>.a{fill:none;}.b{clip-path:url(#a);}.c{fill:#94bf13;}.d{fill:#3ba632;}.e{fill:#d6de6a;}</style><clipPath id="a"><rect class="a" width="270" height="55"/></clipPath></defs><g class="b"><path d="M111.1,24.283a.7.7,0,0,1,.714-.673h.95l15.729,16.714h.041V24.7a.713.713,0,0,1,.714-.714h3.482a.741.741,0,0,1,.714.714V50.157a.715.715,0,0,1-.714.685h-.909L116.012,33.478h-.041V49.744a.72.72,0,0,1-.72.726H111.8a.743.743,0,0,1-.714-.726V24.283Z" transform="translate(-45.526 -9.277)"/><path d="M171.111,41.42,167.328,33.1h-.112l-3.706,8.316Zm-16.342,8.062,11.762-25.455a.674.674,0,0,1,.643-.407h.378a.637.637,0,0,1,.637.407l11.656,25.455a.678.678,0,0,1-.649.992h-3.287a1.075,1.075,0,0,1-1.092-.755l-1.853-4.084H161.65L159.8,49.718a1.135,1.135,0,0,1-1.1.755h-3.287a.678.678,0,0,1-.643-.992" transform="translate(-63.396 -9.287)"/><path d="M202.294,28.783H196.5a.705.705,0,0,1-.714-.714v-3.1a.709.709,0,0,1,.714-.714h16.525a.718.718,0,0,1,.72.714v3.1a.71.71,0,0,1-.72.714h-5.79V50a.737.737,0,0,1-.714.714h-3.518a.738.738,0,0,1-.72-.714V28.783Z" transform="translate(-80.237 -9.54)"/><path d="M232.26,24.964a.741.741,0,0,1,.714-.714h3.594a.716.716,0,0,1,.714.714V40.439a5.5,5.5,0,1,0,11,.035V24.964a.719.719,0,0,1,.726-.714H252.6a.746.746,0,0,1,.72.714V40.7a10.533,10.533,0,0,1-21.064,0V24.964Z" transform="translate(-95.183 -9.534)"/><path d="M288.053,36.988a3.849,3.849,0,0,0,3.736-3.86,3.762,3.762,0,0,0-3.736-3.671h-6.167v7.531ZM276.928,25.644a.709.709,0,0,1,.714-.714H288.46a8.187,8.187,0,0,1,8.239,8.133,8.345,8.345,0,0,1-5.6,7.631L296.28,50.3a.716.716,0,0,1-.643,1.1h-3.972a.649.649,0,0,1-.608-.342l-5.028-10.021h-4.2v9.65a.747.747,0,0,1-.726.714h-3.482a.713.713,0,0,1-.714-.714V25.644Z" transform="translate(-113.481 -9.807)"/><path d="M317.69,25.644a.709.709,0,0,1,.714-.714H333.8a.71.71,0,0,1,.72.714v3.1a.714.714,0,0,1-.72.714h-11.19v6.209h9.337a.747.747,0,0,1,.726.714v3.14a.715.715,0,0,1-.726.714h-9.337V46.85H333.8a.72.72,0,0,1,.72.726v3.1a.722.722,0,0,1-.72.714H318.4a.716.716,0,0,1-.714-.714Z" transform="translate(-130.193 -9.807)"/><path d="M349.947,25.91a.665.665,0,0,1,.643-.98H352.1a.692.692,0,0,1,.643.407l9.414,21.188h.148l9.414-21.188a.752.752,0,0,1,.649-.407h1.511a.667.667,0,0,1,.643.98l-11.5,25.455a.728.728,0,0,1-.649.407H362a.761.761,0,0,1-.637-.407Z" transform="translate(-143.38 -9.802)"/><path d="M397.65,25.644a.737.737,0,0,1,.714-.714h1.517a.737.737,0,0,1,.714.714V50.686a.745.745,0,0,1-.714.714h-1.517a.745.745,0,0,1-.714-.714Z" transform="translate(-162.961 -9.807)"/><path d="M425.485,42.122c-1.853-4.12-3.665-8.275-5.524-12.406h-.3l-5.524,12.406Zm-17.959,8.021,11.491-25.449a.685.685,0,0,1,.643-.413h.378a.678.678,0,0,1,.643.413L432.1,50.142a.671.671,0,0,1-.643.992h-1.511a.693.693,0,0,1-.643-.413l-2.8-6.244H413.079l-2.756,6.244a.7.7,0,0,1-.649.413h-1.517a.668.668,0,0,1-.631-.992" transform="translate(-166.976 -9.546)"/><path class="c" d="M31.617,55a26.217,26.217,0,0,0,8.339-2.155c6.551-2.987,10.1-8.518,10.234-16.007C50.509,19.582,31.959,1.156,31.168.384a1.323,1.323,0,0,0-1.859,0c-.791.778-19.346,19.2-19.022,36.456.142,7.489,3.683,13.02,10.24,16.007A26.306,26.306,0,0,0,28.866,55" transform="translate(-4.214 -0.002)"/><path class="d" d="M35.931,57.41V47.672L47.7,38.2a1.718,1.718,0,0,0,.342-2.131,1.189,1.189,0,0,0-1.8-.407l-10.317,8.3v-9.72L42.553,28.6a1.721,1.721,0,0,0,.3-2.136,1.17,1.17,0,0,0-1.806-.342l-5.111,4.362V16.444a1.3,1.3,0,0,0-2.591,0V30.479l-5.105-4.362a1.172,1.172,0,0,0-1.806.342,1.712,1.712,0,0,0,.3,2.136l6.616,5.642v9.72L23.035,35.667a1.189,1.189,0,0,0-1.8.407,1.712,1.712,0,0,0,.348,2.131L33.34,47.672V57.41Z" transform="translate(-8.611 -5.485)"/><path class="e" d="M34.969,70.427c22.87-6.3,21.725-12.577,3.789-16.142C21.483,50.862,5.7,48.176,7.336,44.364l1.6-4.834C3.653,40.864.384,42.971.8,46.24c1.263,9.933,41.372,10.765,30.914,15.622C26.948,64.07,17.239,67.027,0,70.427Z" transform="translate(0 -15.427)"/><g transform="translate(260.828 14.173)"><path d="M446.52,23.61a4.586,4.586,0,1,1-4.58,4.592A4.6,4.6,0,0,1,446.52,23.61Zm0,8.18a3.588,3.588,0,1,0-3.588-3.588A3.583,3.583,0,0,0,446.52,31.79ZM444.808,26.1a.239.239,0,0,1,.242-.242h1.977a1.544,1.544,0,0,1,1.57,1.582,1.478,1.478,0,0,1-.909,1.416l.584,1.328a.234.234,0,0,1-.218.342h-.69a.285.285,0,0,1-.23-.177l-.561-1.428h-.667v1.363a.239.239,0,0,1-.242.242h-.626a.239.239,0,0,1-.242-.242V26.1Zm2.083,1.877a.512.512,0,0,0,.525-.525.505.505,0,0,0-.525-.525h-1.009v1.045h1.009Z" transform="translate(-441.94 -23.61)"/></g></g></svg>