<svg xmlns="http://www.w3.org/2000/svg" width="30" height="25" viewBox="0 0 30 25"><defs><style>.a{fill:#3ba632;}</style></defs><path class="a" d="M33.574,13.285a12.01,12.01,0,0,1-3.535.994,6.3,6.3,0,0,0,2.706-3.492,12.137,12.137,0,0,1-3.908,1.532,6.077,6.077,0,0,0-4.492-1.993,6.235,6.235,0,0,0-6.154,6.312,6.473,6.473,0,0,0,.16,1.438A17.336,17.336,0,0,1,5.663,11.481a6.426,6.426,0,0,0,1.9,8.427,6.022,6.022,0,0,1-2.788-.79c0,.026,0,.053,0,.08a6.279,6.279,0,0,0,4.938,6.188,6.044,6.044,0,0,1-1.622.221,5.952,5.952,0,0,1-1.158-.114,6.183,6.183,0,0,0,5.749,4.383A12.168,12.168,0,0,1,3.574,32.49a17.1,17.1,0,0,0,9.435,2.836c11.321,0,17.512-9.617,17.512-17.957q0-.41-.017-.817A12.647,12.647,0,0,0,33.574,13.285Z" transform="translate(-3.574 -10.326)"/></svg>