<svg xmlns="http://www.w3.org/2000/svg" width="25" height="25"><path d="M7.359 24.999a7.356 7.356 0 01-5.242-1.966A7.253 7.253 0 010 17.64V7.307A6.9 6.9 0 017.308-.001h10.384a7.177 7.177 0 015.292 2.066A7.225 7.225 0 0125 7.307V17.69a7.215 7.215 0 01-2.067 5.343 7.443 7.443 0 01-5.292 1.966zM3.68 3.628a5.022 5.022 0 00-1.361 3.679V17.64a5.064 5.064 0 001.361 3.73 5.209 5.209 0 003.679 1.31h10.283a5.211 5.211 0 003.68-1.31 4.926 4.926 0 001.461-3.679V7.308a5.2 5.2 0 00-1.361-3.629 5.024 5.024 0 00-3.679-1.361H7.36a5.125 5.125 0 00-3.68 1.31zm2.369 8.821a6.464 6.464 0 016.451-6.45 6.5 6.5 0 016.452 6.452 6.464 6.464 0 01-6.452 6.452 6.431 6.431 0 01-6.451-6.454zm2.318 0a4.152 4.152 0 004.133 4.133 4.152 4.152 0 004.133-4.133A4.152 4.152 0 0012.5 8.316a4.152 4.152 0 00-4.133 4.133zm9.375-6.6a1.462 1.462 0 011.462-1.462 1.462 1.462 0 011.461 1.462 1.462 1.462 0 01-1.461 1.462 1.462 1.462 0 01-1.462-1.465z" fill="#94bf13"/></svg>