<svg xmlns="http://www.w3.org/2000/svg" width="270" height="55"><defs><clipPath id="a"><path fill="none" d="M0 0h270v55H0z"/></clipPath></defs><g clip-path="url(#a)"><path d="M65.574 15.006a.7.7 0 01.714-.673h.95l15.729 16.714h.041V15.423a.713.713 0 01.714-.714h3.482a.741.741 0 01.714.714V40.88a.715.715 0 01-.714.685h-.909L70.486 24.201h-.041v16.266a.72.72 0 01-.72.726h-3.451a.743.743 0 01-.714-.726V15.006zm42.141 17.127l-3.783-8.32h-.112l-3.706 8.316zm-16.342 8.062l11.762-25.455a.674.674 0 01.643-.407h.378a.637.637 0 01.637.407l11.656 25.455a.678.678 0 01-.649.992h-3.287a1.075 1.075 0 01-1.092-.755l-1.853-4.084H98.254l-1.85 4.083a1.135 1.135 0 01-1.1.755h-3.287a.678.678 0 01-.643-.992m30.683-20.951h-5.794a.705.705 0 01-.714-.714v-3.1a.709.709 0 01.714-.714h16.525a.718.718 0 01.72.714v3.1a.71.71 0 01-.72.714h-5.79V40.46a.737.737 0 01-.714.714h-3.518a.738.738 0 01-.72-.714V19.243zm15.02-3.813a.741.741 0 01.714-.714h3.594a.716.716 0 01.714.714v15.475a5.5 5.5 0 1011 .035V15.43a.719.719 0 01.726-.714h3.592a.746.746 0 01.72.714v15.736a10.533 10.533 0 01-21.064 0V15.43zm37.495 11.751a3.849 3.849 0 003.736-3.86 3.762 3.762 0 00-3.736-3.671h-6.167v7.531zm-11.125-11.344a.709.709 0 01.714-.714h10.818a8.187 8.187 0 018.239 8.133 8.345 8.345 0 01-5.6 7.631l5.181 9.606a.716.716 0 01-.643 1.1h-3.972a.649.649 0 01-.608-.342l-5.028-10.021h-4.2v9.65a.747.747 0 01-.726.714h-3.482a.713.713 0 01-.714-.714V15.837zm24.05 0a.709.709 0 01.714-.714h15.396a.71.71 0 01.72.714v3.1a.714.714 0 01-.72.714h-11.19v6.209h9.337a.747.747 0 01.726.714v3.14a.715.715 0 01-.726.714h-9.337v6.615h11.19a.72.72 0 01.72.726v3.1a.722.722 0 01-.72.714h-15.4a.716.716 0 01-.714-.714zm19.07.271a.665.665 0 01.643-.98h1.51a.692.692 0 01.643.407l9.414 21.188h.148l9.414-21.188a.752.752 0 01.649-.407h1.511a.667.667 0 01.643.98l-11.5 25.455a.728.728 0 01-.649.407h-.373a.761.761 0 01-.637-.407zm28.122-.271a.737.737 0 01.714-.714h1.517a.737.737 0 01.714.714v25.042a.745.745 0 01-.714.714h-1.517a.745.745 0 01-.714-.714zm23.82 16.739c-1.853-4.12-3.665-8.275-5.524-12.406h-.3l-5.524 12.406zm-17.959 8.021l11.491-25.449a.685.685 0 01.643-.413h.378a.678.678 0 01.643.413l11.419 25.448a.671.671 0 01-.643.992h-1.511a.693.693 0 01-.643-.413l-2.8-6.244h-13.424l-2.756 6.244a.7.7 0 01-.649.413h-1.517a.668.668 0 01-.631-.992"/><path d="M27.403 54.998a26.217 26.217 0 008.339-2.155c6.551-2.987 10.1-8.518 10.234-16.007C46.295 19.58 27.745 1.154 26.954.382a1.323 1.323 0 00-1.859 0c-.791.778-19.346 19.2-19.022 36.456.142 7.489 3.683 13.02 10.24 16.007a26.306 26.306 0 008.339 2.153" fill="#94bf13"/><path d="M27.32 51.925v-9.738l11.769-9.472a1.718 1.718 0 00.342-2.131 1.189 1.189 0 00-1.8-.407l-10.317 8.3v-9.72l6.628-5.642a1.721 1.721 0 00.3-2.136 1.17 1.17 0 00-1.806-.342l-5.111 4.362v-14.04a1.3 1.3 0 00-2.591 0v14.035l-5.105-4.362a1.172 1.172 0 00-1.806.342 1.712 1.712 0 00.3 2.136l6.616 5.642v9.72l-10.315-8.29a1.189 1.189 0 00-1.8.407 1.712 1.712 0 00.348 2.131l11.757 9.467v9.738z" fill="#3ba632"/><path d="M34.969 55c22.87-6.3 21.725-12.577 3.789-16.142C21.483 35.435 5.7 32.749 7.336 28.937l1.6-4.834C3.653 25.437.384 27.544.8 30.813c1.263 9.933 41.372 10.765 30.914 15.622C26.948 48.643 17.239 51.6 0 55z" fill="#d6de6a"/><path d="M265.408 14.173a4.586 4.586 0 11-4.58 4.592 4.6 4.6 0 014.58-4.592zm0 8.18a3.588 3.588 0 10-3.588-3.588 3.583 3.583 0 003.588 3.588zm-1.712-5.69a.239.239 0 01.242-.242h1.977a1.544 1.544 0 011.57 1.582 1.478 1.478 0 01-.909 1.416l.584 1.328a.234.234 0 01-.218.342h-.69a.285.285 0 01-.23-.177l-.561-1.428h-.667v1.363a.239.239 0 01-.242.242h-.626a.239.239 0 01-.242-.242v-4.184zm2.083 1.877a.512.512 0 00.525-.525.505.505 0 00-.525-.525h-1.009v1.045h1.009z"/></g></svg>