<svg xmlns="http://www.w3.org/2000/svg" width="30" height="25"><path d="M30 2.959a12.01 12.01 0 01-3.535.994A6.3 6.3 0 0029.171.461a12.137 12.137 0 01-3.908 1.532A6.077 6.077 0 0020.771 0a6.235 6.235 0 00-6.154 6.312 6.473 6.473 0 00.16 1.438A17.336 17.336 0 012.089 1.155a6.426 6.426 0 001.9 8.427 6.022 6.022 0 01-2.788-.79v.08a6.279 6.279 0 004.938 6.188 6.044 6.044 0 01-1.622.221 5.952 5.952 0 01-1.158-.114 6.183 6.183 0 005.749 4.383A12.168 12.168 0 010 22.164 17.1 17.1 0 009.435 25c11.321 0 17.512-9.617 17.512-17.957q0-.41-.017-.817A12.647 12.647 0 0030 2.959z" fill="#3ba632"/></svg>